HIERARCHY
ROOT Pelvis
{
	OFFSET 0.000000 0.000000 0.000000
	CHANNELS 6 Xposition Yposition Zposition Zrotation Yrotation Xrotation 
	JOINT Left_hip
	{
		OFFSET 0.068973 -0.091024 -0.007589
		CHANNELS 3 Zrotation Yrotation Xrotation
		JOINT Left_knee
		{
			OFFSET 0.036482 -0.391037 -0.003979
			CHANNELS 3 Zrotation Yrotation Xrotation
			JOINT Left_ankle
			{
				OFFSET -0.012239 -0.415469 -0.043440
				CHANNELS 3 Zrotation Yrotation Xrotation
				JOINT Left_foot
				{
					OFFSET 0.023806 -0.058558 0.118702
					CHANNELS 3 Zrotation Yrotation Xrotation
					End Site
					{
						OFFSET 0.000000 0.000000 0.000000
					}
				}
			}
		}
	}
	JOINT Right_hip
	{
		OFFSET -0.066552 -0.090468 -0.003847
		CHANNELS 3 Zrotation Yrotation Xrotation
		JOINT Right_knee
		{
			OFFSET -0.042435 -0.398340 -0.006400
			CHANNELS 3 Zrotation Yrotation Xrotation
			JOINT Right_ankle
			{
				OFFSET 0.014931 -0.415421 -0.041327
				CHANNELS 3 Zrotation Yrotation Xrotation
				JOINT Right_foot
				{
					OFFSET -0.021472 -0.049410 0.121889
					CHANNELS 3 Zrotation Yrotation Xrotation
					End Site
					{
						OFFSET 0.000000 0.000000 0.000000
					}
				}
			}
		}
	}
	JOINT Spine1
	{
		OFFSET -0.002904 0.105700 -0.022855
		CHANNELS 3 Zrotation Yrotation Xrotation
		JOINT Spine2
		{
			OFFSET 0.004179 0.132554 -0.002501
			CHANNELS 3 Zrotation Yrotation Xrotation
			JOINT Spine3
			{
				OFFSET 0.001987 0.049603 0.025988
				CHANNELS 3 Zrotation Yrotation Xrotation
				JOINT Neck
				{
					OFFSET -0.003935 0.211336 -0.045638
					CHANNELS 3 Zrotation Yrotation Xrotation
					JOINT Head
					{
						OFFSET 0.003906 0.065991 0.051018
						CHANNELS 3 Zrotation Yrotation Xrotation
						End Site
						{
							OFFSET 0.000000 0.000000 0.000000
						}
					}
				}
				JOINT Left_collar
				{
					OFFSET 0.072882 0.117751 -0.036270
					CHANNELS 3 Zrotation Yrotation Xrotation
					JOINT Left_shoulder
					{
						OFFSET 0.082118 0.032630 -0.005771
						CHANNELS 3 Zrotation Yrotation Xrotation
						JOINT Left_elbow
						{
							OFFSET 0.263305 -0.015144 -0.028095
							CHANNELS 3 Zrotation Yrotation Xrotation
							JOINT Left_wrist
							{
								OFFSET 0.250741 0.010115 -0.000759
								CHANNELS 3 Zrotation Yrotation Xrotation
								JOINT Left_palm
								{
									OFFSET 0.080683 -0.009989 -0.013613
									CHANNELS 3 Zrotation Yrotation Xrotation
									End Site
									{
										OFFSET 0.000000 0.000000 0.000000
									}
								}
							}
						}
					}
				}
				JOINT Right_collar
				{
					OFFSET -0.074811 0.116132 -0.040385
					CHANNELS 3 Zrotation Yrotation Xrotation
					JOINT Right_shoulder
					{
						OFFSET -0.085089 0.032943 -0.007484
						CHANNELS 3 Zrotation Yrotation Xrotation
						JOINT Right_elbow
						{
							OFFSET -0.254763 -0.014219 -0.020321
							CHANNELS 3 Zrotation Yrotation Xrotation
							JOINT Right_wrist
							{
								OFFSET -0.256597 0.009233 -0.005063
								CHANNELS 3 Zrotation Yrotation Xrotation
								JOINT Right_palm
								{
									OFFSET -0.080528 -0.007219 -0.010379
									CHANNELS 3 Zrotation Yrotation Xrotation
									End Site
									{
										OFFSET 0.000000 0.000000 0.000000
									}
								}
							}
						}
					}
				}
			}
		}
	}
}
MOTION
Frames: 10
Frame Time: 0.100000
-0.181855 -0.010569 0.049670 176.503605 10.302962 -27.611774 4.545442 8.791782 24.710014 -3.617333 3.129954 -6.210025 -3.548378 13.471982 -2.583748 6.248827 9.759095 -4.740913 -6.903917 -7.043417 7.192847 1.049781 -7.759777 2.947603 9.306269 -16.979500 10.015896 -9.334337 8.658755 -0.546216 1.535483 -2.106619 6.126657 0.236545 -3.714317 11.561855 0.096469 -2.611246 3.331865 0.764667 -4.356196 18.334346 1.273525 -1.055643 13.993686 -7.002070 -6.251640 2.180114 -26.861728 -18.588364 1.145651 89.173716 -74.803712 -88.501857 -8.482490 -18.623552 -40.686648 -1.428056 0.859615 4.279305 4.524783 6.637729 -2.311603 32.370050 10.931771 8.581888 -85.470248 67.196204 -86.333821 10.474615 11.750317 -31.136083 3.238398 3.727583 2.018086 
-0.181440 -0.010730 0.051058 176.596861 10.031346 -27.547209 4.568967 8.834725 24.657794 -3.615105 3.247219 -5.980277 -3.525012 13.555806 -2.659031 6.339338 9.854314 -4.761468 -6.893226 -7.022670 7.156990 1.093784 -7.653394 3.030128 9.302997 -16.719945 9.901154 -9.300855 8.464953 -0.697357 1.546648 -2.039810 6.086901 0.276849 -3.637164 11.621386 0.142959 -2.503942 3.370994 0.741400 -4.283660 18.480792 1.190688 -1.134092 13.869896 -6.557626 -6.200630 2.136602 -27.339877 -18.567107 1.236733 89.661195 -74.762166 -88.702643 -8.281278 -18.295757 -40.902045 -1.432064 0.868743 4.215639 4.256007 6.918057 -2.350949 33.061625 11.617466 8.623257 -84.829044 67.106874 -85.653843 10.086829 11.432855 -31.262634 3.386532 3.746326 1.802438 
-0.180495 -0.011372 0.053097 176.565400 10.057275 -27.635552 4.678544 8.809975 24.327707 -3.474667 3.314945 -4.981197 -3.481250 13.544168 -2.760466 6.321628 10.010585 -4.931090 -6.801533 -7.027456 7.216815 1.035199 -7.642482 3.369591 9.090958 -16.583412 9.853144 -9.052138 8.099105 -0.916684 1.541507 -1.965626 6.261886 0.398853 -3.659379 11.733084 0.251959 -2.481396 3.507391 0.686615 -4.248450 18.834187 1.193756 -1.104729 13.760891 -6.102058 -6.130666 2.121187 -27.958841 -18.807518 1.140571 90.068996 -74.506445 -88.805872 -8.144521 -17.985317 -41.361899 -1.283371 0.879310 4.408588 3.974412 6.893272 -2.404815 33.950261 11.927162 8.674273 -85.469282 66.776485 -85.989956 9.888231 11.211919 -31.529894 3.389534 3.765851 1.785125 
-0.179164 -0.011898 0.056070 176.535136 10.198095 -27.684608 4.807304 8.778305 24.277443 -3.387085 3.206232 -4.467768 -3.489933 13.605493 -2.911083 6.380463 10.055640 -5.053441 -6.787847 -7.012721 7.216353 1.059770 -7.641627 3.929751 8.870631 -16.515940 9.499319 -8.797073 7.820304 -0.993909 1.544724 -1.958521 6.306569 0.468471 -3.708667 11.833853 0.296293 -2.481120 3.616789 0.572244 -4.242192 19.293753 1.179999 -1.168533 13.708053 -5.592667 -6.209033 2.111944 -28.185003 -19.009412 1.019549 90.111663 -74.369105 -88.699106 -8.086545 -17.833255 -41.750096 -1.078062 0.960465 4.580966 3.600481 6.930479 -2.418497 34.474507 12.081682 8.641889 -85.673339 66.622718 -85.986952 9.833180 11.087962 -31.792131 3.258010 3.731342 1.811735 
-0.177850 -0.012368 0.059371 176.589642 10.211565 -27.620352 4.866084 8.794806 24.318388 -3.307819 3.131506 -4.267119 -3.490694 13.649507 -2.996425 6.413493 10.128830 -5.214588 -6.746614 -6.903079 6.954751 1.028299 -7.579878 4.739701 8.634880 -16.468656 9.011015 -8.547145 7.629538 -1.012902 1.605231 -2.035972 6.259079 0.474279 -3.662545 11.863972 0.267971 -2.474583 3.658233 0.501971 -4.174420 19.493708 1.038691 -1.117746 13.696012 -5.422424 -6.171350 2.111004 -28.468199 -19.117538 1.033953 90.120035 -74.314565 -88.538591 -8.197250 -17.745962 -41.984735 -0.921950 1.032619 4.682613 3.431377 6.917157 -2.448107 34.786552 12.265587 8.647933 -85.850933 66.470176 -86.038700 9.882031 11.019759 -31.970878 3.124529 3.678627 1.863637 
-0.177039 -0.012925 0.062520 176.620342 10.280237 -27.407787 4.931149 8.806853 24.470151 -3.333434 3.030940 -4.606235 -3.603632 13.651833 -2.939878 6.559670 10.091634 -5.299561 -6.752322 -6.835074 6.716775 1.085317 -7.615478 5.196759 8.486522 -16.445567 8.601798 -8.391384 7.558489 -0.883198 1.654377 -2.149473 6.071139 0.497760 -3.676804 11.842559 0.233768 -2.531472 3.629644 0.567342 -4.253589 19.643953 0.954728 -1.213088 13.822418 -5.521796 -6.047665 2.196644 -28.670726 -19.016663 1.212434 89.703832 -74.471891 -88.054390 -8.387550 -17.790386 -41.994896 -0.890092 1.085852 4.583708 3.454789 6.825686 -2.447029 34.777093 12.334356 8.661337 -85.872670 66.463703 -86.033753 9.973748 11.039789 -32.062300 3.025229 3.628916 1.903189 
-0.176878 -0.013286 0.065042 176.594265 10.505724 -27.238818 4.964171 8.790194 24.574101 -3.346396 2.858343 -4.865925 -3.665750 13.597227 -2.936470 6.618712 10.112811 -5.397494 -6.768318 -6.755595 6.530503 1.084229 -7.681950 5.630270 8.322048 -16.470564 8.210309 -8.210311 7.406803 -0.797737 1.697041 -2.278914 6.025639 0.520286 -3.742086 11.840406 0.222337 -2.624979 3.643268 0.596208 -4.400936 19.741683 0.958100 -1.303055 13.751587 -5.499929 -5.964507 2.248508 -28.925675 -19.102095 1.294144 90.189144 -74.448145 -88.376398 -8.579829 -17.879052 -42.236821 -0.733089 1.165453 4.671820 3.336787 6.609273 -2.500432 34.877948 12.215054 8.607692 -86.357323 66.265893 -86.420581 10.124173 11.083395 -32.317813 2.838690 3.568787 2.031406 
-0.176891 -0.013163 0.066720 176.576533 10.589413 -27.313223 5.010309 8.829575 24.510435 -3.307339 2.665435 -4.336450 -3.530507 13.629682 -3.226217 6.517298 10.268166 -5.548993 -6.799491 -6.606938 6.120591 0.982378 -7.581028 6.853262 8.104027 -16.474646 7.869037 -7.914952 7.134256 -0.978911 1.701829 -2.418326 6.308243 0.555213 -3.788669 11.924008 0.231048 -2.708797 3.747060 0.536691 -4.629623 20.113958 1.000213 -1.417290 13.497005 -5.180856 -5.968217 2.328583 -29.192094 -19.237000 1.160805 89.902391 -74.306621 -87.959360 -8.440355 -17.649033 -42.600807 -0.510487 1.239469 4.790277 2.975420 6.550839 -2.560625 35.326282 12.242452 8.534663 -86.341211 65.971892 -86.386813 9.934540 10.879862 -32.629988 2.696912 3.546218 2.050066 
-0.175847 -0.011788 0.064378 176.536577 10.382903 -27.946413 5.287627 9.062360 24.484572 -3.366907 1.834017 -3.015100 -2.904749 14.029737 -3.488066 6.763083 11.109399 -6.773763 -7.188206 -5.471676 0.810310 0.417508 -7.150696 17.459575 8.142097 -16.394891 8.675286 -8.097219 5.987340 -3.742859 1.654790 -3.434168 7.629309 0.612665 -3.182941 12.481109 0.279982 -2.717982 4.147696 0.386523 -5.067620 21.102619 1.551270 -0.849828 11.271648 -3.333314 -6.032867 2.708881 -31.761166 -19.522796 0.949792 89.527194 -73.206745 -86.980327 -7.611370 -15.879326 -44.325180 -0.061342 1.273804 4.339795 0.615983 6.950978 -2.434954 38.837159 13.001487 8.569259 -85.574342 64.617691 -85.475964 9.285627 9.596975 -33.569245 2.428064 3.472590 1.367534 
-0.171956 -0.012249 0.065439 175.703769 11.620750 -29.282763 6.336030 9.101117 23.822950 -3.013655 -0.245275 0.473675 -2.595465 14.753097 -3.631575 8.436347 11.843483 -9.578022 -7.182623 -4.984547 -4.230220 -0.417430 -5.702757 27.599488 9.401401 -15.116716 10.646564 -11.162140 1.134719 -10.504141 1.458509 -4.185819 8.685089 0.746591 -3.414040 13.868887 1.304504 -2.845958 6.469764 -1.938435 -7.982928 26.667732 5.639018 0.086465 3.187562 6.834251 -5.114452 4.035375 -43.830779 -19.896132 0.469096 85.103978 -68.647138 -80.025660 -2.402068 -8.814068 -53.870826 1.094572 1.272934 4.745379 -10.767166 5.537403 -2.288446 52.502483 13.438619 7.111507 -84.685452 59.808485 -82.185046 4.383046 4.689231 -37.953325 2.866070 3.647470 -1.086719 
